<svg xmlns="http://www.w3.org/2000/svg" viewBox="0 0 378.28 83.86"><defs><style>.cls-1{fill:#918f90;}.cls-1,.cls-2{fill-rule:evenodd;}.cls-2{fill:#fff;}</style></defs><g id="Warstwa_2" data-name="Warstwa 2"><g id="svg2"><g id="g8"><g id="g14"><g id="g108"><path id="path110" class="cls-1" d="M80,0h0l1.63,1.63v80h-80L0,80H80Z"/></g><g id="g112"><path id="path114" class="cls-1" d="M66.43,11.87h0L15.91,6.53v.1a3.31,3.31,0,0,1,1.2,5.46H66.43Zm-49.32,60h-.22l-5-61.38h.12a3.15,3.15,0,0,0,5.06,1.63ZM44.64,21.41a1.92,1.92,0,0,0-.6.47c-.24.29-1,.14-1.47.28-.27.08-.4.19-.42.15a2.55,2.55,0,0,1,.46-.78c.5-.47,2-.8,2-.12M66.43,17.7H41.21v3.49a8.28,8.28,0,0,1,1.72-.78,3.84,3.84,0,0,1,1.34-.21.82.82,0,0,1,.83,1,2.19,2.19,0,0,1,2.2,0A1.85,1.85,0,0,1,47.74,23a1.71,1.71,0,0,0-2.14-.4A2.93,2.93,0,0,0,44.23,24c.26.3,1.09.06,1.38-.09a3.45,3.45,0,0,0,.94-.81,2.89,2.89,0,0,1-.32,1.38,2.41,2.41,0,0,1-1.45.88,3.73,3.73,0,0,0-1.56,1,3.54,3.54,0,0,0-.43,2.49,23,23,0,0,0,.81,3,8.31,8.31,0,0,1,.46,2.87c1.53.25,4-1.46,4.86-2.16A10,10,0,0,0,51.33,30a3.5,3.5,0,0,0-.23-3.29,4.36,4.36,0,0,1,2.29-6.47,4.65,4.65,0,0,1,5.34,2A12.55,12.55,0,0,1,60,28.59c-.05,3.51-.19,5.69.46,8.31a8.37,8.37,0,0,0,1.87,3.55c-.74.89-2,.28-3-.54C58,38.7,56.77,36,56,31.57l-.15.54a26.68,26.68,0,0,0,.88,7A8.37,8.37,0,0,0,60.2,44.5c-1.13,1-2.27.58-3.26-.18-2-1.5-2.82-3.21-3.63-6.65l-.15.19a14,14,0,0,0,.69,5.85,11,11,0,0,0,3.37,4.67c-1,.95-2.19.32-3.15-.37a9.81,9.81,0,0,1-4-6.57l-.17.15a18.76,18.76,0,0,0,.59,5.66,9.17,9.17,0,0,0,3.31,4.61c-1.19,1-2.26.39-3.13-.27A11.5,11.5,0,0,1,46.38,44l-.2.1c-.25,3.62-.23,7.58,3,9.9l-1.29.81.75,1.27c.33.57,3.33-1,4.55,0a1.44,1.44,0,0,1,.45,1.82l-.07,0a1.06,1.06,0,0,0-.69-1,1.74,1.74,0,0,0-2,.54c-1.21.81-2.06.24-2.68,1a1.33,1.33,0,0,0-.2,1.38l-.06,0c-1.66-.87-.11-2.47-.42-3l-.81-1.42-1.29.79c-.12-1-1.6-6-2.49-6.33a4.94,4.94,0,0,0-.26,1.82c0,.85.35,1.47.26,2.66a5,5,0,0,1-.71,1.94,1.26,1.26,0,0,1,.58,1.17,6.34,6.34,0,0,1-.42,1.69c-.22.66-.41,1.16-.16,1.16a2.63,2.63,0,0,1,1.95-.27c.83.24,1.36,1,2.11,1.42a22.19,22.19,0,0,0,2.6.74c-1.36.52-1.55,1.9-3.39,1.62-1.1-.17-2.76-2.26-3.06-2.09a5.53,5.53,0,0,0,0,2.32,13.05,13.05,0,0,1,.12,1.67,11.51,11.51,0,0,1-.18,2.15,17.45,17.45,0,0,1-1.21,4h0c24.8-8.29,25-43,25.19-54.14M55.14,23.9h0a1,1,0,1,1,.93-1,1,1,0,0,1-.93,1m-1.7,1.73a1,1,0,1,0-.93-1,1,1,0,0,0,.93,1m3.14.28a1,1,0,1,0-.92-1,1,1,0,0,0,.92,1M55.1,24.42c-.19,9.3-4.66,16.52-13.88,17.1v-2.6c7.46-.24,13.05-7.61,13.73-14.5Zm-17.32-3a1.92,1.92,0,0,1,.6.47c.24.29,1,.15,1.47.28.27.08.4.19.41.15a2.52,2.52,0,0,0-.45-.78c-.5-.47-2-.8-2-.12M41.2,71.84h0a17.79,17.79,0,0,1-1.19-4,11.55,11.55,0,0,1-.18-2.16,13,13,0,0,1,.12-1.66,5.7,5.7,0,0,0,0-2.32c-.3-.17-2,1.92-3.06,2.09-1.84.28-2-1.1-3.39-1.62a22.19,22.19,0,0,0,2.6-.74c.75-.39,1.27-1.18,2.1-1.42a2.63,2.63,0,0,1,2,.27c.25,0,.07-.5-.15-1.16a6.37,6.37,0,0,1-.43-1.69,1.29,1.29,0,0,1,.59-1.17,4.72,4.72,0,0,1-.71-1.94c-.09-1.19.3-1.81.25-2.66a4.76,4.76,0,0,0-.25-1.82c-.89.34-2.37,5.38-2.49,6.33l-1.3-.79-.8,1.42c-.31.54,1.24,2.14-.42,3l-.06,0a1.34,1.34,0,0,0-.21-1.38c-.62-.81-1.47-.24-2.67-1a1.75,1.75,0,0,0-2-.54,1.05,1.05,0,0,0-.69,1l-.08,0a1.45,1.45,0,0,1,.45-1.82c1.22-1,4.22.57,4.55,0l.76-1.27L33.23,54c3.24-2.32,3.25-6.28,3-9.9L36,44a11.42,11.42,0,0,1-4.29,7.61c-.86.66-1.94,1.28-3.12.27a9.23,9.23,0,0,0,3.31-4.61,19.1,19.1,0,0,0,.58-5.66l-.17-.15a9.81,9.81,0,0,1-4,6.57c-.95.69-2.1,1.32-3.15.37a10.93,10.93,0,0,0,3.37-4.67,14,14,0,0,0,.69-5.85l-.15-.19c-.81,3.45-1.65,5.15-3.63,6.66-1,.75-2.13,1.19-3.25.17a8.36,8.36,0,0,0,3.47-5.35,26.2,26.2,0,0,0,.88-7l-.15-.55c-.78,4.4-2,7.13-3.41,8.34-1,.82-2.2,1.43-3,.54a8.31,8.31,0,0,0,1.87-3.55c.65-2.61.51-4.79.46-8.3a12.67,12.67,0,0,1,1.29-6.42,4.65,4.65,0,0,1,5.34-2,4.36,4.36,0,0,1,2.29,6.47A3.53,3.53,0,0,0,31.08,30a9.9,9.9,0,0,0,2.42,2.54c.86.7,3.32,2.41,4.85,2.16a8.13,8.13,0,0,1,.47-2.87,22.9,22.9,0,0,0,.8-3,3.54,3.54,0,0,0-.42-2.49,3.82,3.82,0,0,0-1.57-1,2.44,2.44,0,0,1-1.45-.88,3.1,3.1,0,0,1-.32-1.37,3.87,3.87,0,0,0,1,.81c.28.14,1.11.38,1.37.08a2.93,2.93,0,0,0-1.37-1.41,1.71,1.71,0,0,0-2.14.4,1.86,1.86,0,0,1,.44-1.85,2.21,2.21,0,0,1,2.21,0,.81.81,0,0,1,.82-1,3.76,3.76,0,0,1,1.34.21,8.05,8.05,0,0,1,1.72.78ZM27.28,23.9h0a1,1,0,1,0-.93-1,1,1,0,0,0,.93,1M29,25.62a1,1,0,1,1,.93-1,1,1,0,0,1-.93,1m-3.14.29a1,1,0,1,1,.92-1,1,1,0,0,1-.92,1m1.48-1.49c.19,9.29,4.66,16.52,13.88,17.1v-2.6c-7.46-.24-13.05-7.61-13.73-14.5Z"/></g><g id="g138"><path id="path140" class="cls-2" d="M66.43,11.87h0L15.91,6.53v.1a3.31,3.31,0,0,1,1.2,5.46H66.43Zm-49.32,60h0V12.09a3.14,3.14,0,0,1-5.06-1.63h-.12l5,61.38ZM44.64,21.41h0c0-.67-1.53-.35-2,.13a2.39,2.39,0,0,0-.46.77s.15-.07.42-.15c.45-.14,1.23,0,1.47-.28a2.08,2.08,0,0,1,.6-.47M66.43,17.7H41.21v3.49a8.28,8.28,0,0,1,1.72-.78,3.84,3.84,0,0,1,1.34-.21.82.82,0,0,1,.83,1,2.19,2.19,0,0,1,2.2,0A1.85,1.85,0,0,1,47.74,23a1.71,1.71,0,0,0-2.14-.4A2.93,2.93,0,0,0,44.23,24c.26.3,1.09.06,1.38-.09a3.45,3.45,0,0,0,.94-.81,2.89,2.89,0,0,1-.32,1.38,2.41,2.41,0,0,1-1.45.88,3.73,3.73,0,0,0-1.56,1,3.54,3.54,0,0,0-.43,2.49,23,23,0,0,0,.81,3,8.31,8.31,0,0,1,.46,2.87c1.54.25,4-1.46,4.86-2.16A10,10,0,0,0,51.33,30a3.53,3.53,0,0,0-.23-3.29,4.36,4.36,0,0,1,2.29-6.47,4.65,4.65,0,0,1,5.34,2A12.55,12.55,0,0,1,60,28.6c-.05,3.5-.19,5.68.46,8.3a8.37,8.37,0,0,0,1.87,3.55c-.75.89-2,.28-3-.54C58,38.7,56.77,36,56,31.57l-.15.54a26.68,26.68,0,0,0,.88,7A8.37,8.37,0,0,0,60.2,44.5c-1.13,1-2.27.58-3.26-.18-2-1.5-2.82-3.2-3.63-6.65l-.15.19a14,14,0,0,0,.69,5.85,11.1,11.1,0,0,0,3.37,4.67c-1,.95-2.19.32-3.15-.37a9.81,9.81,0,0,1-4-6.57l-.17.15a18.76,18.76,0,0,0,.59,5.66,9.17,9.17,0,0,0,3.31,4.61c-1.19,1-2.26.39-3.13-.28A11.48,11.48,0,0,1,46.38,44l-.2.1c-.25,3.62-.23,7.58,3,9.9l-1.29.81.75,1.27c.33.57,3.33-1,4.55,0a1.44,1.44,0,0,1,.45,1.82l-.07,0a1.06,1.06,0,0,0-.69-1,1.74,1.74,0,0,0-2,.54c-1.21.82-2.06.24-2.68,1a1.33,1.33,0,0,0-.2,1.38l-.06,0c-1.66-.87-.11-2.47-.42-3l-.81-1.42-1.29.79c-.12-1-1.6-6-2.49-6.33a5,5,0,0,0-.26,1.82c0,.85.35,1.47.26,2.66a5,5,0,0,1-.71,1.94,1.26,1.26,0,0,1,.58,1.17,6.34,6.34,0,0,1-.42,1.69c-.22.66-.41,1.16-.16,1.16a2.63,2.63,0,0,1,1.95-.27c.83.24,1.36,1,2.11,1.42a24.28,24.28,0,0,0,2.6.75c-1.36.51-1.55,1.89-3.39,1.61-1.1-.17-2.76-2.26-3.06-2.09a5.53,5.53,0,0,0,0,2.32,13,13,0,0,1,.12,1.66,11.55,11.55,0,0,1-.18,2.16,17.45,17.45,0,0,1-1.21,4h0c24.8-8.29,25-43,25.19-54.14M55.14,23.9a1,1,0,1,0-.92-1,1,1,0,0,0,.92,1m-1.7,1.73a1,1,0,1,0-.93-1,1,1,0,0,0,.93,1m3.14.28a1,1,0,1,0-.92-1,1,1,0,0,0,.92,1M55.1,24.42H55c-.68,6.89-6.27,14.26-13.73,14.5v2.6c9.22-.58,13.69-7.8,13.88-17.1m-17.32-3a2.08,2.08,0,0,1,.6.47c.24.29,1,.15,1.47.28.27.08.4.19.41.15a2.52,2.52,0,0,0-.45-.78c-.49-.47-2-.8-2-.12M41.2,71.84h0V21.19a8.05,8.05,0,0,0-1.72-.78,3.76,3.76,0,0,0-1.34-.21.81.81,0,0,0-.82,1,2.21,2.21,0,0,0-2.21,0A1.86,1.86,0,0,0,34.67,23a1.71,1.71,0,0,1,2.14-.4A2.93,2.93,0,0,1,38.18,24c-.26.3-1.09.06-1.37-.08a3.87,3.87,0,0,1-1-.81,3.18,3.18,0,0,0,.32,1.38,2.48,2.48,0,0,0,1.45.87,3.82,3.82,0,0,1,1.57,1,3.54,3.54,0,0,1,.42,2.49,22.9,22.9,0,0,1-.8,3,8.13,8.13,0,0,0-.47,2.87c-1.53.25-4-1.46-4.85-2.15A10.09,10.09,0,0,1,31.08,30a3.53,3.53,0,0,1,.23-3.29A4.36,4.36,0,0,0,29,20.21a4.65,4.65,0,0,0-5.34,2,12.67,12.67,0,0,0-1.29,6.42c.05,3.5.19,5.69-.46,8.3a8.46,8.46,0,0,1-1.87,3.56c.75.88,2,.27,3-.54,1.42-1.22,2.63-4,3.41-8.35l.15.55a26.25,26.25,0,0,1-.88,7,8.36,8.36,0,0,1-3.47,5.35c1.12,1,2.26.58,3.25-.17,2-1.51,2.82-3.21,3.63-6.66l.15.19a14,14,0,0,1-.69,5.85,10.93,10.93,0,0,1-3.37,4.67c1,.95,2.2.32,3.15-.37a9.81,9.81,0,0,0,4-6.57l.17.15a19.1,19.1,0,0,1-.58,5.66,9.23,9.23,0,0,1-3.31,4.61c1.18,1,2.26.39,3.12-.28A11.37,11.37,0,0,0,36,44l.21.1c.24,3.62.23,7.58-3,9.9l1.29.81-.76,1.27c-.33.57-3.33-1-4.55,0a1.45,1.45,0,0,0-.45,1.82l.08,0a1.05,1.05,0,0,1,.69-1,1.75,1.75,0,0,1,2,.54c1.2.82,2.05.24,2.67,1a1.34,1.34,0,0,1,.21,1.38l.06,0c1.66-.87.11-2.47.42-3l.8-1.42,1.3.79c.12-1,1.6-6,2.49-6.33a4.79,4.79,0,0,1,.25,1.82c.05.85-.34,1.47-.25,2.66a4.72,4.72,0,0,0,.71,1.94,1.29,1.29,0,0,0-.59,1.17A6.37,6.37,0,0,0,40,59.16c.22.66.4,1.16.15,1.16a2.63,2.63,0,0,0-2-.27c-.83.24-1.35,1-2.1,1.42a24.28,24.28,0,0,1-2.6.75c1.35.51,1.55,1.89,3.39,1.61,1.1-.17,2.76-2.26,3.06-2.09a5.7,5.7,0,0,1,0,2.32,13,13,0,0,0-.12,1.66A11.55,11.55,0,0,0,40,67.88a17.79,17.79,0,0,0,1.19,4ZM27.28,23.9h0a1,1,0,0,0,0-2,1,1,0,0,0,0,2M29,25.62h0a1,1,0,1,0-.93-1,1,1,0,0,0,.93,1m-3.14.29h0a1,1,0,1,0-.93-1,1,1,0,0,0,.93,1m1.48-1.49c.19,9.29,4.66,16.52,13.88,17.1v-2.6c-7.46-.24-13.05-7.61-13.73-14.5Zm101.1,8.39a14,14,0,0,0-.13,2.14l-.21.14a2.66,2.66,0,0,0-1.27-.37,2.21,2.21,0,0,0-2.13,1.38,10.74,10.74,0,0,0-.64,4.3c0,2.38,0,4.27.13,5.68A4.86,4.86,0,0,0,123,46a6,6,0,0,0-1,.09c.09-2.21.13-5.27.13-9.16,0-1.71,0-3.07-.13-4.08a5.13,5.13,0,0,0,1.14.11,4.86,4.86,0,0,0,1.11-.11,25.81,25.81,0,0,0-.16,3.09q1.42-3.23,3.3-3.23a6.3,6.3,0,0,1,1,.14m13.8,6.63a7,7,0,0,1-1.77,5,6.27,6.27,0,0,1-9,0,7.08,7.08,0,0,1-1.76-5,7,7,0,0,1,1.79-5,6.24,6.24,0,0,1,9,0,7.09,7.09,0,0,1,1.74,5m-2.27.17q0-6.21-4-6.21c-2.64,0-4,2-4,6s1.34,6.07,4,6.07,4-2,4-5.88m14.75-5.93A14.25,14.25,0,0,0,154,36.1a3.74,3.74,0,0,0-3.59-2.64A3.82,3.82,0,0,0,147.14,35,7.24,7.24,0,0,0,146,39.44a6.82,6.82,0,0,0,1.26,4.35,4.05,4.05,0,0,0,3.34,1.58,5.43,5.43,0,0,0,4-2c0,.52-.05.87-.05,1a3.6,3.6,0,0,0,0,.56A6.85,6.85,0,0,1,150,46.36a5.74,5.74,0,0,1-4.47-1.88,7.22,7.22,0,0,1-1.69-5,7,7,0,0,1,1.78-5,6.25,6.25,0,0,1,4.75-1.88,8.8,8.8,0,0,1,4.31,1.12M161,32.2c-.44.27-1.07.71-1.9,1.29q0,9.63.13,12.59A7.49,7.49,0,0,0,158.1,46a6.2,6.2,0,0,0-1,.09q.1-3.27.1-7.11V34.89c-.23.19-.84.7-1.82,1.55V35a19.85,19.85,0,0,0,1.85-1.27V33c0-3.37-.05-6-.13-8,.45,0,.81.06,1,.06s.64,0,1.14-.06c-.09,2-.13,4.34-.13,7v.31c.68-.53,1.32-1.06,1.9-1.61Zm12.24,13.42a8.07,8.07,0,0,1-2.17.46c-.81,0-1.29-.55-1.45-1.63a5.19,5.19,0,0,1-3.94,1.88q-3.65,0-3.65-3.46a3.47,3.47,0,0,1,3.07-3.65L168,38.6a3.84,3.84,0,0,0,1.66-.67v-.59a4.61,4.61,0,0,0-.67-2.78,2.61,2.61,0,0,0-2.26-.9,3.84,3.84,0,0,0-3.41,2h-.21l0-1.49a6.18,6.18,0,0,1,4.26-1.57,4,4,0,0,1,3.2,1.14,5.41,5.41,0,0,1,1,3.58v.34l-.1,5.59a4.09,4.09,0,0,0,.13,1.29,1,1,0,0,0,1,.56,2.49,2.49,0,0,0,.45,0Zm-3.6-2.89V39.11a16.15,16.15,0,0,0-4.15,1.12,2.4,2.4,0,0,0-1.29,2.28c0,1.78.78,2.67,2.35,2.67a3.51,3.51,0,0,0,2.64-1.24,1.69,1.69,0,0,0,.45-1.21m23.42-9.92a125.18,125.18,0,0,0-5,13.27,3.61,3.61,0,0,0-.79-.09,3.44,3.44,0,0,0-.77.09,90.18,90.18,0,0,0-3.25-10.15,75.25,75.25,0,0,0-3.33,10.15,3.34,3.34,0,0,0-.74-.06,3.72,3.72,0,0,0-.77.06,119.85,119.85,0,0,0-4.6-13.27,5.32,5.32,0,0,0,1.16.11,5.42,5.42,0,0,0,1.19-.11,103.28,103.28,0,0,0,3.31,10.29,79.71,79.71,0,0,0,3.46-10.29,3.55,3.55,0,0,0,.79.09,3.44,3.44,0,0,0,.77-.09,61.51,61.51,0,0,0,3.3,10.26,98.92,98.92,0,0,0,3.68-10.26c.38,0,.66.06.82.06a7.74,7.74,0,0,0,.79-.06m24.37-5.93c-.09,2.42-.14,4.12-.14,5.12v.73q0,4.58-.13,6.35a11,11,0,0,1-.95,4q-1.83,3.34-6.45,3.34c-2.63,0-4.53-.68-5.73-2s-1.8-3.49-1.8-6.42c0-.11,0-.81,0-2.11s0-2.51,0-3.67c0-1.52,0-3.29-.08-5.32a5.14,5.14,0,0,0,1.15.12,5,5,0,0,0,1.23-.14l-.11,10.22a20.07,20.07,0,0,0,.19,3.24,6,6,0,0,0,1.14,2.92,5.86,5.86,0,0,0,8.71-.06,6.41,6.41,0,0,0,1.11-3.09,34.56,34.56,0,0,0,.19-4.41c0-3.17,0-6.1-.11-8.8a2.86,2.86,0,0,0,.82.12,3.07,3.07,0,0,0,.88-.12m14.16,19.2a4.45,4.45,0,0,0-1.08-.14,4.58,4.58,0,0,0-1.09.14q.16-3,.16-8,0-4.15-3-4.16a2.92,2.92,0,0,0-2.46,1.21c-.6.81-.9,2.27-.9,4.39v1.26c0,2.55,0,4.3.08,5.26a4.56,4.56,0,0,0-1.11-.14,4.51,4.51,0,0,0-1.08.14c.07-1,.1-2.68.1-4.89v-2q0-4.38-.1-6.38a4.58,4.58,0,0,0,1.08.12,3.78,3.78,0,0,0,1-.12c0,.68-.05,1.15-.05,1.43q0,.18,0,.51v.51a4.59,4.59,0,0,1,4.15-2.73q4.22,0,4.22,5c0,.47,0,1.16,0,2.07s0,1.57,0,2c0,1.38,0,2.86.08,4.44m6.08-18.16a1.43,1.43,0,0,1-.4,1,1.28,1.28,0,0,1-1.9,0,1.47,1.47,0,0,1-.4-1,1.38,1.38,0,0,1,.4-1,1.31,1.31,0,0,1,1.9,0,1.34,1.34,0,0,1,.4,1m-.26,18.16a4.35,4.35,0,0,0-1.09-.14,4.45,4.45,0,0,0-1.08.14q.13-3.86.13-7,0-2.86-.13-6.3a4.58,4.58,0,0,0,1.08.12,4.32,4.32,0,0,0,1.09-.12q-.13,3.46-.14,6.3,0,3.12.14,7m13.74-13.27q-4.29,10.09-5.24,13.27a4.17,4.17,0,0,0-.81-.06,3.38,3.38,0,0,0-.75.06q-1.08-3.72-5.1-13.27a5.48,5.48,0,0,0,1.19.11,6,6,0,0,0,1.25-.11,83.66,83.66,0,0,0,3.88,10.65,55.11,55.11,0,0,0,3.91-10.65,3,3,0,0,0,.85.11,2.5,2.5,0,0,0,.82-.11M263,38.66V39c0,.13,0,.23,0,.31h-9.1v.08c0,3.9,1.49,5.84,4.45,5.84a5.49,5.49,0,0,0,4.07-1.88c0,.49-.06.84-.06,1.07v.34a7.2,7.2,0,0,1-4.49,1.6,5.83,5.83,0,0,1-4.51-1.91,7.11,7.11,0,0,1-1.73-5,7.35,7.35,0,0,1,1.67-5,5.57,5.57,0,0,1,4.41-1.9,5,5,0,0,1,3.93,1.59A6.71,6.71,0,0,1,263,38.66m-2.11-.37v-.48a5.24,5.24,0,0,0-.89-3.26,2.85,2.85,0,0,0-2.42-1.17,3.12,3.12,0,0,0-2.53,1.29A6.28,6.28,0,0,0,254,38.29Zm11-5.48a12.58,12.58,0,0,0-.14,2.14l-.21.14a2.66,2.66,0,0,0-1.26-.37,2.2,2.2,0,0,0-2.13,1.38,10.53,10.53,0,0,0-.65,4.3c0,2.38,0,4.27.13,5.68a4.84,4.84,0,0,0-1.13-.12,6,6,0,0,0-1,.09c.09-2.21.13-5.27.13-9.16,0-1.71,0-3.07-.13-4.08a5.13,5.13,0,0,0,1.14.11,4.86,4.86,0,0,0,1.11-.11,25.81,25.81,0,0,0-.16,3.09q1.43-3.23,3.3-3.23a6.54,6.54,0,0,1,1,.14m8.53,9.11a4.23,4.23,0,0,1-1.29,3.16,4.69,4.69,0,0,1-3.38,1.25,5.54,5.54,0,0,1-3.41-1,16.77,16.77,0,0,0,.63-2.17,3.75,3.75,0,0,0,3.22,2.11,2.53,2.53,0,0,0,1.88-.69,2.48,2.48,0,0,0,.69-1.86c0-1.12-.7-1.89-2.09-2.3L275.45,40a4.18,4.18,0,0,1-2.18-1.28,3.63,3.63,0,0,1-.68-2.33,3.74,3.74,0,0,1,1.11-2.78,4,4,0,0,1,2.93-1.09,5.87,5.87,0,0,1,3.31.93,7.27,7.27,0,0,0-.56,1.77,4.1,4.1,0,0,0-3.06-1.86,2.15,2.15,0,0,0-1.63.66,2.47,2.47,0,0,0,1.39,4.06l1.8.57a3.16,3.16,0,0,1,2.53,3.23m4.81-14a1.46,1.46,0,0,1-.39,1,1.3,1.3,0,0,1-1.91,0,1.46,1.46,0,0,1-.39-1,1.37,1.37,0,0,1,.39-1,1.32,1.32,0,0,1,1.91,0,1.37,1.37,0,0,1,.39,1M285,46.08a4.33,4.33,0,0,0-1.08-.14,4.58,4.58,0,0,0-1.09.14q.13-3.86.13-7,0-2.86-.13-6.3a4.73,4.73,0,0,0,1.09.12,4.24,4.24,0,0,0,1.08-.12q-.13,3.46-.13,6.3,0,3.12.13,7m21.09-13.27q-.8,1.66-2.51,5.79L300,47.12a44.66,44.66,0,0,0-2.3,6.22,4.36,4.36,0,0,0-.9-.09,5,5,0,0,0-.93.09,49.9,49.9,0,0,0,2.81-5.86l.6-1.49-1.11-3.09q-.78-2.17-4.08-10a4.46,4.46,0,0,0-.07.84V34c-.95-.05-1.76-.08-2.43-.08-.44,0-.75,0-.95,0l-.05,1.4c0,.55,0,1.54,0,3s-.06,2.63-.06,3.54a5.51,5.51,0,0,0,.5,2.71,1.84,1.84,0,0,0,1.72.83,4.32,4.32,0,0,0,1.85-.59l.19.62a4.88,4.88,0,0,1-2.88,1,3.21,3.21,0,0,1-2.59-.92,4.51,4.51,0,0,1-.77-2.93c0-.28,0-1.27.07-3s.06-3.25.06-4.68v-1h-.29A13,13,0,0,0,287,34c0-.33,0-.58,0-.73V33a1.27,1.27,0,0,1,0-.23,15.81,15.81,0,0,0,1.69.09V32c0-.6,0-1.38-.06-2.36a7,7,0,0,0,2.12-.7c-.06,1.2-.08,1.94-.08,2.22V33c.95,0,2.08,0,3.38-.16h.05a6.62,6.62,0,0,0,1.24.1,6.07,6.07,0,0,0,1.27-.11q.69,2.56,2.83,8.15l.93,2.42.95-2.34c1.34-3.29,2.32-6,3-8.23a3.61,3.61,0,0,0,1.77,0M108.31,69.5a7,7,0,0,1-1.77,5,6.27,6.27,0,0,1-9,0,7.07,7.07,0,0,1-1.75-5,7,7,0,0,1,1.78-5,6.23,6.23,0,0,1,9,0,7.11,7.11,0,0,1,1.74,5m-2.27.16q0-6.21-4-6.21t-4,6c0,4,1.33,6.07,4,6.07s4-2,4-5.88m10.65-14.58-.27,2.19a3.31,3.31,0,0,0-1.5-.34c-1.5,0-2.25.88-2.25,2.62q0,1.16.21,3.51h.58l.59,0q.56,0,1.56-.06v1.16L112.94,64q0,9.3.21,12.09A4.83,4.83,0,0,0,112,76a5.28,5.28,0,0,0-1.17.14c.12-1.18.19-4,.19-8.55V64q-.62,0-1.77.06V63q.8.06,1.11.06l.37,0h.34a10.84,10.84,0,0,1,1.45-5.93,4.22,4.22,0,0,1,3.65-2.08,3.51,3.51,0,0,1,.53,0m17.44,15.35a5.81,5.81,0,0,1-1.72,4.39,6.24,6.24,0,0,1-4.57,1.67A6.7,6.7,0,0,1,123.4,75a12.47,12.47,0,0,0,.58-3q1.24,3.35,4.36,3.35a3.59,3.59,0,0,0,2.74-1.11,4.22,4.22,0,0,0,1-3,3.36,3.36,0,0,0-.66-2.17,5.5,5.5,0,0,0-2-1.37l-2.14-1Q123.8,65.16,123.8,62a5.18,5.18,0,0,1,1.55-3.9,5.44,5.44,0,0,1,4-1.52,8.25,8.25,0,0,1,4,1,14.51,14.51,0,0,0-.74,2.16A4.22,4.22,0,0,0,129,57.66a3,3,0,0,0-2.31,1,3.61,3.61,0,0,0-.86,2.53q0,2.19,2.67,3.43l2.14,1a6.49,6.49,0,0,1,2.67,2,4.81,4.81,0,0,1,.82,2.92m12.37-6.69a13.89,13.89,0,0,0-.71,2.41,3.74,3.74,0,0,0-3.6-2.64,3.83,3.83,0,0,0-3.25,1.56,7.32,7.32,0,0,0-1.16,4.43A6.87,6.87,0,0,0,139,73.84a4.07,4.07,0,0,0,3.35,1.58,5.43,5.43,0,0,0,4-2c0,.52-.05.87-.05,1a4,4,0,0,0,0,.56,6.83,6.83,0,0,1-4.52,1.41,5.68,5.68,0,0,1-4.46-1.89,7.18,7.18,0,0,1-1.7-5,7,7,0,0,1,1.79-5,6.24,6.24,0,0,1,4.74-1.88,8.68,8.68,0,0,1,4.31,1.13M151.07,58a1.45,1.45,0,0,1-.39,1,1.33,1.33,0,0,1-1,.42,1.31,1.31,0,0,1-.95-.42,1.45,1.45,0,0,1-.39-1,1.38,1.38,0,0,1,.39-1,1.29,1.29,0,0,1,.95-.41,1.32,1.32,0,0,1,1,.41,1.38,1.38,0,0,1,.39,1m-.26,18.15a4.38,4.38,0,0,0-1.09-.15,4.57,4.57,0,0,0-1.08.15q.13-3.85.13-7,0-2.86-.13-6.3a4.64,4.64,0,0,0,1.08.12,4.26,4.26,0,0,0,1.09-.12c-.09,2.31-.13,4.4-.13,6.3q0,3.12.13,7m14-7.42V69a1.9,1.9,0,0,0,0,.31h-9.1v.08q0,5.85,4.44,5.85a5.47,5.47,0,0,0,4.07-1.89c0,.49,0,.85,0,1.07v.34a7.16,7.16,0,0,1-4.49,1.6,5.83,5.83,0,0,1-4.51-1.91,7.11,7.11,0,0,1-1.73-5,7.3,7.3,0,0,1,1.67-5,5.6,5.6,0,0,1,4.41-1.9,4.92,4.92,0,0,1,3.92,1.59,6.66,6.66,0,0,1,1.39,4.54m-2.11-.37v-.48a5.31,5.31,0,0,0-.89-3.26,2.87,2.87,0,0,0-2.42-1.18,3.13,3.13,0,0,0-2.53,1.3,6.28,6.28,0,0,0-1.11,3.62Zm15.09,7.79a4,4,0,0,0-2.17,0q.16-3,.16-8c0-2.77-1-4.16-3-4.16a2.92,2.92,0,0,0-2.46,1.21c-.6.81-.9,2.27-.9,4.39v1.26c0,2.55,0,4.3.08,5.26a4.73,4.73,0,0,0-1.11-.15,4.64,4.64,0,0,0-1.09.15c.07-1,.11-2.68.11-4.89v-2q0-4.38-.11-6.38a4.73,4.73,0,0,0,1.09.12,3.83,3.83,0,0,0,1-.12c0,.68-.05,1.15-.05,1.44,0,.11,0,.28,0,.5v.51a4.61,4.61,0,0,1,4.15-2.73q4.23,0,4.23,5,0,.7,0,2.07c0,.9,0,1.58,0,2,0,1.38,0,2.86.08,4.44M191,63.74a13.89,13.89,0,0,0-.71,2.41,3.74,3.74,0,0,0-3.6-2.64,3.83,3.83,0,0,0-3.25,1.56,7.32,7.32,0,0,0-1.16,4.43,6.81,6.81,0,0,0,1.26,4.34,4.05,4.05,0,0,0,3.34,1.58,5.43,5.43,0,0,0,4-2c0,.52-.05.87-.05,1a4,4,0,0,0,0,.56,6.83,6.83,0,0,1-4.52,1.41,5.69,5.69,0,0,1-4.46-1.89,7.18,7.18,0,0,1-1.7-5,7,7,0,0,1,1.79-5,6.24,6.24,0,0,1,4.74-1.88A8.65,8.65,0,0,1,191,63.74m12.29,5V69a2.11,2.11,0,0,0,0,.31H194.2v.08q0,5.85,4.44,5.85a5.47,5.47,0,0,0,4.07-1.89c0,.49-.05.85-.05,1.07v.34a7.16,7.16,0,0,1-4.49,1.6,5.81,5.81,0,0,1-4.51-1.91,7.11,7.11,0,0,1-1.73-5,7.3,7.3,0,0,1,1.67-5,5.58,5.58,0,0,1,4.41-1.9,4.92,4.92,0,0,1,3.92,1.59,6.66,6.66,0,0,1,1.39,4.54m-2.11-.37v-.48a5.31,5.31,0,0,0-.89-3.26,2.88,2.88,0,0,0-2.42-1.18,3.16,3.16,0,0,0-2.54,1.3,6.43,6.43,0,0,0-1.11,3.62Zm21.48,7.34a7.9,7.9,0,0,1-2.17.45c-.8,0-1.29-.55-1.45-1.63a5.17,5.17,0,0,1-3.94,1.88q-3.65,0-3.65-3.46a3.48,3.48,0,0,1,3.07-3.65l2.93-.62a3.89,3.89,0,0,0,1.67-.67v-.59a4.61,4.61,0,0,0-.67-2.78,2.63,2.63,0,0,0-2.26-.9,3.82,3.82,0,0,0-3.41,2h-.21l.05-1.49a6.18,6.18,0,0,1,4.25-1.57,4,4,0,0,1,3.2,1.14,5.41,5.41,0,0,1,1,3.58v.34L221,73.29a4,4,0,0,0,.14,1.29,1,1,0,0,0,1,.56l.45,0Zm-3.59-2.9V69.16A16.15,16.15,0,0,0,215,70.28a2.4,2.4,0,0,0-1.3,2.28c0,1.78.79,2.67,2.36,2.67A3.54,3.54,0,0,0,218.65,74a1.69,1.69,0,0,0,.45-1.21m16.14,3.35a4.5,4.5,0,0,0-1.08-.15,4.57,4.57,0,0,0-1.08.15c.1-2,.16-4.62.16-8q0-4.15-3-4.16a2.92,2.92,0,0,0-2.46,1.21c-.59.81-.89,2.27-.89,4.39v1.26c0,2.55,0,4.3.08,5.26a4.73,4.73,0,0,0-1.11-.15,4.64,4.64,0,0,0-1.09.15c.07-1,.11-2.68.11-4.89v-2q0-4.38-.11-6.38a4.73,4.73,0,0,0,1.09.12,3.83,3.83,0,0,0,1-.12c0,.68-.05,1.15-.05,1.44,0,.11,0,.28,0,.5v.51A4.61,4.61,0,0,1,231,62.58q4.23,0,4.23,5,0,.7,0,2.07c0,.9,0,1.58,0,2,0,1.38,0,2.86.07,4.44m14.41,0a4.73,4.73,0,0,0-1.11-.15,4.6,4.6,0,0,0-1.11.15c0-.71,0-1.27,0-1.66s0-.82,0-1.07a4.76,4.76,0,0,1-4.52,3,4.71,4.71,0,0,1-3.85-1.81,7.48,7.48,0,0,1-1.47-4.85,8,8,0,0,1,1.58-5.16,4.94,4.94,0,0,1,4-2,4.55,4.55,0,0,1,4.17,2.59q0-1.41,0-3.09v-2c0-1.76,0-3.46-.08-5.09a4.34,4.34,0,0,0,1.13.2,4,4,0,0,0,1.12-.2c-.08,2.23-.11,5.24-.11,9q0,6.66.16,12.06m-2.19-7a7,7,0,0,0-1-4,3.14,3.14,0,0,0-2.72-1.4,3.31,3.31,0,0,0-2.9,1.54,8,8,0,0,0-1,4.42,7.73,7.73,0,0,0,1,4.2,3,3,0,0,0,2.68,1.47,3.34,3.34,0,0,0,2.95-1.59,8.36,8.36,0,0,0,1.05-4.62m24.12-10.51a4.76,4.76,0,0,1-.07-.84,4.18,4.18,0,0,1,.07-.82q-3.68.09-7,.09t-6.31-.09c0,.38.05.67.05.88s0,.45-.05.78a27.27,27.27,0,0,1,4.86-.33h.72V63q0,5.44-.14,13.18a10.2,10.2,0,0,1,1.27-.06,8.21,8.21,0,0,1,1.19.06Q266,69.66,266,64.55q0-4,.13-6.29h.77a26.43,26.43,0,0,1,4.67.33m9.28,10.12V69a2.11,2.11,0,0,0,0,.31h-9.09v.08q0,5.85,4.44,5.85a5.49,5.49,0,0,0,4.07-1.89c0,.49-.05.85-.05,1.07v.34a7.14,7.14,0,0,1-4.49,1.6,5.81,5.81,0,0,1-4.51-1.91,7.06,7.06,0,0,1-1.73-5,7.35,7.35,0,0,1,1.66-5,5.62,5.62,0,0,1,4.42-1.9,4.92,4.92,0,0,1,3.92,1.59,6.66,6.66,0,0,1,1.39,4.54m-2.11-.37v-.48a5.31,5.31,0,0,0-.89-3.26,2.87,2.87,0,0,0-2.42-1.18,3.16,3.16,0,0,0-2.54,1.3,6.43,6.43,0,0,0-1.11,3.62Zm14.37-4.6a13.89,13.89,0,0,0-.71,2.41,3.74,3.74,0,0,0-3.59-2.64,3.8,3.8,0,0,0-3.25,1.56,7.26,7.26,0,0,0-1.17,4.43,6.81,6.81,0,0,0,1.26,4.34A4.06,4.06,0,0,0,289,75.42a5.43,5.43,0,0,0,4-2c0,.52-.05.87-.05,1s0,.45,0,.56a6.8,6.8,0,0,1-4.51,1.41A5.72,5.72,0,0,1,284,74.52a7.18,7.18,0,0,1-1.69-5,7,7,0,0,1,1.78-5,6.25,6.25,0,0,1,4.75-1.88,8.64,8.64,0,0,1,4.3,1.13m12.43,12.39a4.38,4.38,0,0,0-1.09-.15,4.57,4.57,0,0,0-1.08.15c.08-3.43.13-5.92.13-7.48a6.94,6.94,0,0,0-.69-3.53A2.55,2.55,0,0,0,300.49,64a3,3,0,0,0-2.85,1.86,14.39,14.39,0,0,0-.52,5v2c0,.67,0,1.77.07,3.29A4.51,4.51,0,0,0,296.1,76a4.21,4.21,0,0,0-1.05.15q.13-6.36.13-10.54,0-5-.13-10.54a8,8,0,0,0,1.1.11,6.3,6.3,0,0,0,1.07-.11q-.11,3.15-.1,6.27c0,.77,0,2,.05,3.85a4.75,4.75,0,0,1,4.11-2.56c2.82,0,4.24,1.63,4.24,4.89,0,.36,0,1,0,2s0,1.75,0,2.35c0,.35,0,1.79.11,4.3m13.92,0a4,4,0,0,0-2.16,0q.15-3,.15-8,0-4.15-3-4.16A2.92,2.92,0,0,0,312,65.22c-.59.81-.89,2.27-.89,4.39v1.26c0,2.55,0,4.3.07,5.26a4.07,4.07,0,0,0-2.19,0c.07-1,.11-2.68.11-4.89v-2q0-4.38-.11-6.38a4.7,4.7,0,0,0,1.08.12,3.91,3.91,0,0,0,1-.12c0,.68-.06,1.15-.06,1.44,0,.11,0,.28,0,.5v.51a4.6,4.6,0,0,1,4.15-2.73q4.23,0,4.23,5,0,.7,0,2.07c0,.9,0,1.58,0,2,0,1.38,0,2.86.08,4.44M334.4,69.5a7,7,0,0,1-1.77,5,6.26,6.26,0,0,1-9,0,7.85,7.85,0,0,1,0-9.93,6.23,6.23,0,0,1,9,0,7.11,7.11,0,0,1,1.74,5m-2.27.16q0-6.21-4-6.21t-4,6c0,4,1.33,6.07,4,6.07s4-2,4-5.88m6.9,6.47a7.4,7.4,0,0,0-1.14-.09,6.2,6.2,0,0,0-1.05.09c.06-1.26.1-4,.1-8.21V60.56c0-2.64,0-4.48-.1-5.51q.69.06,1.05.06t1.14-.06c-.09,1.73-.13,4.61-.13,8.66q0,9.34.13,12.42m15-6.63a7,7,0,0,1-1.77,5,6.27,6.27,0,0,1-9,0,7.83,7.83,0,0,1,0-9.93,6.22,6.22,0,0,1,9,0,7.12,7.12,0,0,1,1.75,5m-2.27.16q0-6.21-4-6.21c-2.64,0-4,2-4,6s1.33,6.07,4,6.07,4-2,4-5.88m13.13,9.42a2.48,2.48,0,0,0-1.19-2.45,9.75,9.75,0,0,0-3.8-.5,8.13,8.13,0,0,0-.82.05,3.18,3.18,0,0,0-2.33,3.29,3.4,3.4,0,0,0,1,2.56,3.62,3.62,0,0,0,2.64,1,4.72,4.72,0,0,0,3.24-1.11,3.62,3.62,0,0,0,1.25-2.82m-1.53-12q0-3.7-2.74-3.71a2.58,2.58,0,0,0-2.13,1,4.2,4.2,0,0,0-.81,2.68,4.28,4.28,0,0,0,.78,2.74,2.64,2.64,0,0,0,2.16,1q2.75,0,2.74-3.71m15-4.19q-.79,1.67-2.51,5.79l-3.55,8.51a52.77,52.77,0,0,0-2.4,6.64,4.29,4.29,0,0,0-.9-.09,4.86,4.86,0,0,0-.92.09,59.41,59.41,0,0,0,2.9-6.27l.61-1.49L370.4,73c-.51-1.42-1.84-4.66-4-9.71v.63c-.58,0-1.13-.08-1.64-.08h-.53a5.42,5.42,0,0,1,1,3.2,4.29,4.29,0,0,1-1.28,3.3,4.92,4.92,0,0,1-3.5,1.2,7.16,7.16,0,0,1-.84-.06l-.62-.05c-.82,0-1.24.44-1.24,1.32s.69,1.54,2.06,1.54l.48,0h1a7.84,7.84,0,0,1,4,.75A3.39,3.39,0,0,1,366.67,78a5.3,5.3,0,0,1-1.85,4.2,7.18,7.18,0,0,1-4.88,1.62,5.21,5.21,0,0,1-3.51-1.12,3.7,3.7,0,0,1-1.28-2.93,3.84,3.84,0,0,1,2.93-3.8,2.27,2.27,0,0,1-2-2.36c0-1,.7-1.86,2.09-2.61a3.62,3.62,0,0,1-2.64-3.77,4.39,4.39,0,0,1,1.42-3.42,5.48,5.48,0,0,1,3.84-1.3,12.18,12.18,0,0,1,1.73.16,11.69,11.69,0,0,0,1.36.15c.46,0,1.31-.07,2.57-.22v.25a6.39,6.39,0,0,0,1.13.09,6,6,0,0,0,1.27-.12q.69,2.56,2.83,8.15l.92,2.42,1-2.33a85.26,85.26,0,0,0,3-8.24,3.16,3.16,0,0,0,.9.12,3.07,3.07,0,0,0,.88-.12M121,26.88q-1.69,5.29-6,19.2a3.36,3.36,0,0,0-.92-.12,2.93,2.93,0,0,0-1,.14q-2-7.16-4.86-15.73l-4.95,15.71a3.13,3.13,0,0,0-1.85,0q-2-7.17-5.65-19.2a6.73,6.73,0,0,0,2.53,0q2.18,8.52,4.58,16.53,2.75-8,5-16.53a3.14,3.14,0,0,0,1.72,0q2.33,8.1,5.08,16.25,2.61-8,4.59-16.25a3,3,0,0,0,.85.12,3.11,3.11,0,0,0,.9-.12M80,0h0l1.63,1.63v80h-80L0,80H80Z"/></g></g></g></g></g></svg>